<svg id="visual" viewBox="0 0 960 540" width="960" height="540" xmlns="http://www.w3.org/2000/svg" xmlns:xlink="http://www.w3.org/1999/xlink" version="1.1"><rect x="0" y="0" width="960" height="540" fill="#EFE8D6"></rect><path d="M0 300L14.5 289.2C29 278.3 58 256.7 87.2 246.7C116.3 236.7 145.7 238.3 174.8 250.8C204 263.3 233 286.7 262 297.5C291 308.3 320 306.7 349 292C378 277.3 407 249.7 436.2 241C465.3 232.3 494.7 242.7 523.8 256.8C553 271 582 289 611 298.2C640 307.3 669 307.7 698 305.2C727 302.7 756 297.3 785.2 288C814.3 278.7 843.7 265.3 872.8 269.2C902 273 931 294 945.5 304.5L960 315L960 0L945.5 0C931 0 902 0 872.8 0C843.7 0 814.3 0 785.2 0C756 0 727 0 698 0C669 0 640 0 611 0C582 0 553 0 523.8 0C494.7 0 465.3 0 436.2 0C407 0 378 0 349 0C320 0 291 0 262 0C233 0 204 0 174.8 0C145.7 0 116.3 0 87.2 0C58 0 29 0 14.5 0L0 0Z" fill="#f99f93"></path><path d="M0 255L14.5 247.3C29 239.7 58 224.3 87.2 211C116.3 197.7 145.7 186.3 174.8 188.8C204 191.3 233 207.7 262 213.3C291 219 320 214 349 213.7C378 213.3 407 217.7 436.2 213.2C465.3 208.7 494.7 195.3 523.8 196C553 196.7 582 211.3 611 220C640 228.7 669 231.3 698 233.3C727 235.3 756 236.7 785.2 236.3C814.3 236 843.7 234 872.8 224.2C902 214.3 931 196.7 945.5 187.8L960 179L960 0L945.5 0C931 0 902 0 872.8 0C843.7 0 814.3 0 785.2 0C756 0 727 0 698 0C669 0 640 0 611 0C582 0 553 0 523.8 0C494.7 0 465.3 0 436.2 0C407 0 378 0 349 0C320 0 291 0 262 0C233 0 204 0 174.8 0C145.7 0 116.3 0 87.2 0C58 0 29 0 14.5 0L0 0Z" fill="#f38e7f"></path><path d="M0 161L14.5 159.3C29 157.7 58 154.3 87.2 157.8C116.3 161.3 145.7 171.7 174.8 177C204 182.3 233 182.7 262 186.2C291 189.7 320 196.3 349 200.3C378 204.3 407 205.7 436.2 192.7C465.3 179.7 494.7 152.3 523.8 137.7C553 123 582 121 611 134C640 147 669 175 698 178C727 181 756 159 785.2 148.8C814.3 138.7 843.7 140.3 872.8 137.7C902 135 931 128 945.5 124.5L960 121L960 0L945.5 0C931 0 902 0 872.8 0C843.7 0 814.3 0 785.2 0C756 0 727 0 698 0C669 0 640 0 611 0C582 0 553 0 523.8 0C494.7 0 465.3 0 436.2 0C407 0 378 0 349 0C320 0 291 0 262 0C233 0 204 0 174.8 0C145.7 0 116.3 0 87.2 0C58 0 29 0 14.5 0L0 0Z" fill="#ed7c6c"></path><path d="M0 133L14.5 125.7C29 118.3 58 103.7 87.2 103C116.3 102.3 145.7 115.7 174.8 116.5C204 117.3 233 105.7 262 108.8C291 112 320 130 349 129.7C378 129.3 407 110.7 436.2 108.5C465.3 106.3 494.7 120.7 523.8 122.7C553 124.7 582 114.3 611 114.8C640 115.3 669 126.7 698 128C727 129.3 756 120.7 785.2 121.7C814.3 122.7 843.7 133.3 872.8 133.8C902 134.3 931 124.7 945.5 119.8L960 115L960 0L945.5 0C931 0 902 0 872.8 0C843.7 0 814.3 0 785.2 0C756 0 727 0 698 0C669 0 640 0 611 0C582 0 553 0 523.8 0C494.7 0 465.3 0 436.2 0C407 0 378 0 349 0C320 0 291 0 262 0C233 0 204 0 174.8 0C145.7 0 116.3 0 87.2 0C58 0 29 0 14.5 0L0 0Z" fill="#e56a59"></path><path d="M0 51L14.5 57.5C29 64 58 77 87.2 80.5C116.3 84 145.7 78 174.8 71.3C204 64.7 233 57.3 262 50.7C291 44 320 38 349 44.5C378 51 407 70 436.2 75.2C465.3 80.3 494.7 71.7 523.8 63.5C553 55.3 582 47.7 611 44.2C640 40.7 669 41.3 698 49.3C727 57.3 756 72.7 785.2 71.7C814.3 70.7 843.7 53.3 872.8 50.3C902 47.3 931 58.7 945.5 64.3L960 70L960 0L945.5 0C931 0 902 0 872.8 0C843.7 0 814.3 0 785.2 0C756 0 727 0 698 0C669 0 640 0 611 0C582 0 553 0 523.8 0C494.7 0 465.3 0 436.2 0C407 0 378 0 349 0C320 0 291 0 262 0C233 0 204 0 174.8 0C145.7 0 116.3 0 87.2 0C58 0 29 0 14.5 0L0 0Z" fill="#dd5746"></path></svg>