<svg width="58" height="31" viewBox="0 0 58 31" fill="none" xmlns="http://www.w3.org/2000/svg">
<path d="M35.5156 4.96094L40.668 2.42058L52.8575 26.9817L47.7051 29.522L35.5156 4.96094Z" fill="white"/>
<path d="M47.2535 28.6152L52.8595 26.9648C54.4902 30.1228 55.6712 30.7743 58.0004 30.999H44.4453C47.2171 30.6954 47.6282 30.1124 47.2535 28.6152Z" fill="white"/>
<path d="M40.6254 2.38482L35.0194 4.03516C33.3887 0.877174 32.2077 0.22574 29.8785 0.0010047H43.4336C40.6618 0.304566 40.2507 0.887564 40.6254 2.38482Z" fill="white"/>
<path d="M34.9961 3.98158L35.5445 4.98839L40.6438 2.5423V2.35547L34.9961 3.98158Z" fill="white"/>
<path d="M33.681 8.18723L31.1718 17.1908L28.759 11.9792C30.8306 12.824 31.9625 11.659 33.681 8.18723Z" fill="white"/>
<path d="M22.8757 12.8164C23.7177 16.8854 22.3118 18.0433 16.9336 18.3893C22.5679 18.2224 24.7956 19.4517 27.8262 22.9814L22.8757 12.8164Z" fill="white"/>
<path d="M31.2437 16.9943L29.0258 25.4477L19.4297 6.11165L22.8272 0.0351562L31.2437 16.9943Z" fill="white"/>
<path d="M13.5585 31.0003H0C5.32839 29.9024 7.69333 28.2168 10.611 22.9805C8.612 27.7889 7.51397 30.4727 13.5585 31.0003Z" fill="white"/>
</svg>
