<svg width="8549" height="1613" viewBox="0 0 8549 1613" fill="none" xmlns="http://www.w3.org/2000/svg">
<path d="M6965 888C6965 865.909 6982.91 848 7005 848H7175C7197.09 848 7215 865.909 7215 888V1573C7215 1595.09 7197.09 1613 7175 1613H7005C6982.91 1613 6965 1595.09 6965 1573V888Z" fill="black"/>
<path d="M6965 466C6965 443.909 6982.91 426 7005 426H7175C7197.09 426 7215 443.909 7215 466V668C7215 690.091 7197.09 708 7175 708H7005C6982.91 708 6965 690.091 6965 668V466Z" fill="black"/>
<path d="M5658.53 40C5658.53 17.9086 5676.44 0 5698.53 0H5868.53C5890.62 0 5908.53 17.9086 5908.53 40V1573C5908.53 1595.09 5890.62 1613 5868.53 1613H5698.53C5676.44 1613 5658.53 1595.09 5658.53 1573V40Z" fill="black"/>
<path d="M665 998C665 975.909 682.909 958 705 958H875C897.091 958 915 975.909 915 998V1304C915 1326.09 897.091 1344 875 1344H705C682.909 1344 665 1326.09 665 1304V998Z" fill="black"/>
<path d="M0 1267C0 1244.91 17.9086 1227 40 1227H210C232.091 1227 250 1244.91 250 1267V1573C250 1595.09 232.091 1613 210 1613H40C17.9086 1613 0 1595.09 0 1573V1267Z" fill="black"/>
<path d="M1330 1267C1330 1244.91 1347.91 1227 1370 1227H1540C1562.09 1227 1580 1244.91 1580 1267V1573C1580 1595.09 1562.09 1613 1540 1613H1370C1347.91 1613 1330 1595.09 1330 1573V1267Z" fill="black"/>
<path d="M982.88 426.013C1312.47 428.1 1579 695.923 1579 1026V1492H1329V1026C1329 832.7 1172.3 676 979 676H600C406.7 676 250 832.7 250 1026V1492H0V1026C2.24733e-05 695.924 266.534 428.1 596.119 426.013L600 426H979L982.88 426.013Z" fill="black"/>
<path d="M3084 467C3084 444.909 3101.91 427 3124 427H3294C3316.09 427 3334 444.909 3334 467V773C3334 795.091 3316.09 813 3294 813H3124C3101.91 813 3084 795.091 3084 773V467Z" fill="black"/>
<path d="M3480 1613C3457.91 1613 3440 1595.09 3440 1573V1403C3440 1380.91 3457.91 1363 3480 1363H3786C3808.09 1363 3826 1380.91 3826 1403V1573C3826 1595.09 3808.09 1613 3786 1613H3480Z" fill="black"/>
<path d="M3603 1363H3484C3401.16 1363 3334 1295.84 3334 1213V551.438H3084V1213C3084 1433.91 3263.09 1613 3484 1613H3603V1363Z" fill="black"/>
<path d="M2664 1069C2664 1046.91 2681.91 1029 2704 1029H2874C2896.09 1029 2914 1046.91 2914 1069V1573C2914 1595.09 2896.09 1613 2874 1613H2704C2681.91 1613 2664 1595.09 2664 1573V1069Z" fill="black"/>
<path d="M2291 677V427H2763C2785.09 427 2803 444.909 2803 467V637C2803 659.091 2785.09 677 2763 677H2291Z" fill="black"/>
<path d="M2296 678.127C2132.74 696.977 2000 839.026 2000 1019.5C2000 1213.44 2153.28 1363 2333 1363C2496.45 1363 2638.03 1239.29 2662.32 1071H2913.83C2888.19 1374.67 2637.94 1613 2333 1613C2011.02 1613 1750 1347.28 1750 1019.5C1750 704.371 1991.26 446.607 2296 427.178V678.127Z" fill="black"/>
<path d="M8298.53 1069C8298.53 1046.91 8316.44 1029 8338.53 1029H8508.53C8530.62 1029 8548.53 1046.91 8548.53 1069V1573C8548.53 1595.09 8530.62 1613 8508.53 1613H8338.53C8316.44 1613 8298.53 1595.09 8298.53 1573V1069Z" fill="black"/>
<path d="M7925.53 677V427H8397.53C8419.62 427 8437.53 444.909 8437.53 467V637C8437.53 659.091 8419.62 677 8397.53 677H7925.53Z" fill="black"/>
<path d="M7930.53 678.127C7767.27 696.977 7634.53 839.026 7634.53 1019.5C7634.53 1213.44 7787.81 1363 7967.53 1363C8130.98 1363 8272.56 1239.29 8296.86 1071H8548.36C8522.72 1374.67 8272.47 1613 7967.53 1613C7645.55 1613 7384.53 1347.28 7384.53 1019.5C7384.53 704.371 7625.79 446.607 7930.53 427.178V678.127Z" fill="black"/>
<path d="M4819.81 0.216797C4834.97 0.811342 4849.13 10.0495 4855.27 25.002L5485.53 1559.88C5493.92 1580.32 5484.15 1603.69 5463.72 1612.08L5461.48 1613H5289.37C5267.15 1612.4 5251.8 1606.52 5240.78 1598.05C5231.94 1591.25 5225.32 1582.35 5220.21 1571.92L4742.27 407.962L4269.94 1558.24L4269.87 1558.21C4269.7 1558.69 4269.53 1559.17 4269.36 1559.64L4264.99 1570.29C4259.83 1581.3 4253.12 1590.72 4244.02 1597.86C4233.1 1606.43 4217.85 1612.39 4195.63 1613H4023.06L4020.82 1612.08C4000.38 1603.69 3990.62 1580.32 3999.01 1559.88L4629.26 25.002C4635.28 10.3491 4649 1.18355 4663.81 0.262695V0H4819.81V0.216797Z" fill="black"/>
<path d="M6078.53 1267C6078.53 1244.91 6096.44 1227 6118.53 1227H6288.53C6310.62 1227 6328.53 1244.91 6328.53 1267V1573C6328.53 1595.09 6310.62 1613 6288.53 1613H6118.53C6096.44 1613 6078.53 1595.09 6078.53 1573V1267Z" fill="black"/>
<path d="M6699.53 677V427H6754.53C6776.62 427 6794.53 444.909 6794.53 467V637C6794.53 659.091 6776.62 677 6754.53 677H6699.53Z" fill="black"/>
<path d="M6699.53 676H6678.53C6485.23 676 6328.53 832.7 6328.53 1026V1492H6078.53V1026C6078.53 695.924 6345.07 428.1 6674.65 426.013L6678.53 426H6699.53V676Z" fill="black"/>
</svg>
